<svg xmlns="http://www.w3.org/2000/svg" width="183.465" height="162" viewBox="0 0 183.465 162">
  <g id="icon-06" transform="translate(0 -29.952)" opacity="0.15">
    <path id="パス_335" data-name="パス 335" d="M183.37,175.747,160.144,72.356a23.308,23.308,0,0,0-12.627-15.891l-25.959-12.5L91.734,120.446,61.907,43.965l-25.958,12.5A23.308,23.308,0,0,0,23.321,72.356L.095,175.747a3.889,3.889,0,0,0,2.934,4.644l19.04,4.3a3.887,3.887,0,0,0,4.629-2.868l17.08-69.94,5.137,34.256-9.188,42.881a4.853,4.853,0,0,0,4.048,5.82l41.964,6.1,6-16.653,5.993,16.653,41.964-6.1a4.853,4.853,0,0,0,4.048-5.82l-9.187-42.881,5.137-34.256,17.079,69.94a3.885,3.885,0,0,0,4.629,2.868l19.04-4.3A3.889,3.889,0,0,0,183.37,175.747Zm-91.636-6.2a3.63,3.63,0,1,1,3.627-3.63A3.631,3.631,0,0,1,91.734,169.543Zm0-24.549a3.629,3.629,0,1,1,3.627-3.63A3.629,3.629,0,0,1,91.734,144.994Z" transform="translate(0 -8.992)" fill="#0082e6"/>
    <path id="パス_336" data-name="パス 336" d="M249.265,42.7l1.14-4.465-2.027-8.286h-8.857l-2.03,8.286,1.143,4.465Z" transform="translate(-152.391)" fill="#0082e6"/>
    <path id="パス_337" data-name="パス 337" d="M250.373,116.351l-1.4-32.943H237.544l-1.4,32.943,7.118,18.55Z" transform="translate(-151.524 -34.301)" fill="#0082e6"/>
  </g>
</svg>
