<svg xmlns="http://www.w3.org/2000/svg" width="211.798" height="158.92" viewBox="0 0 211.798 158.92">
  <g id="icon-11" transform="translate(0 -63.914)" opacity="0.15">
    <path id="パス_355" data-name="パス 355" d="M100.389,127.176A31.631,31.631,0,1,0,68.762,95.555,31.625,31.625,0,0,0,100.389,127.176Z" transform="translate(-40.317)" fill="#0082e6"/>
    <path id="パス_356" data-name="パス 356" d="M102.551,264.548l-42.5,42.442L17.345,264.282C7.649,270.3,0,281.262,0,291.645v48.671H119.478V291.645C119.478,281.422,112.041,270.614,102.551,264.548Z" transform="translate(0 -117.482)" fill="#0082e6"/>
    <path id="パス_357" data-name="パス 357" d="M122.356,303.572l9.437,9.437,8.754-8.747v-17.03H122.356Z" transform="translate(-71.741 -130.938)" fill="#0082e6"/>
    <rect id="長方形_714" data-name="長方形 714" width="18.165" height="11.644" transform="translate(50.625 138.557)" fill="#0082e6"/>
    <path id="パス_358" data-name="パス 358" d="M347.465,222.028A27.625,27.625,0,1,0,319.846,194.4,27.61,27.61,0,0,0,347.465,222.028Z" transform="translate(-187.536 -60.312)" fill="#0082e6"/>
    <path id="パス_359" data-name="パス 359" d="M387.412,336.3l-32.9,32.951-21.722-21.718v35.009h74.136V362.451C406.921,351.855,397.851,340.622,387.412,336.3Z" transform="translate(-195.122 -159.71)" fill="#0082e6"/>
    <path id="パス_360" data-name="パス 360" d="M374.017,369.722l8.654-8.644v-11.2H366.059v11.89Z" transform="translate(-214.632 -167.668)" fill="#0082e6"/>
    <rect id="長方形_715" data-name="長方形 715" width="16.625" height="7.639" transform="translate(151.424 169.026)" fill="#0082e6"/>
  </g>
</svg>
