<svg xmlns="http://www.w3.org/2000/svg" width="144.012" height="158.809" viewBox="0 0 144.012 158.809">
  <g id="icon-02" transform="translate(-23.853)" opacity="0.15">
    <rect id="長方形_705" data-name="長方形 705" width="15.782" height="15.783" transform="translate(53.444 69.047)" fill="#0082e6"/>
    <rect id="長方形_706" data-name="長方形 706" width="15.782" height="15.783" transform="translate(122.491 69.047)" fill="#0082e6"/>
    <rect id="長方形_707" data-name="長方形 707" width="15.782" height="15.783" transform="translate(99.476 69.047)" fill="#0082e6"/>
    <rect id="長方形_708" data-name="長方形 708" width="15.782" height="15.783" transform="translate(53.444 93.707)" fill="#0082e6"/>
    <rect id="長方形_709" data-name="長方形 709" width="15.782" height="15.783" transform="translate(99.476 93.707)" fill="#0082e6"/>
    <rect id="長方形_710" data-name="長方形 710" width="15.782" height="15.783" transform="translate(76.461 93.707)" fill="#0082e6"/>
    <rect id="長方形_711" data-name="長方形 711" width="15.782" height="15.783" transform="translate(122.491 118.366)" fill="#0082e6"/>
    <rect id="長方形_712" data-name="長方形 712" width="15.782" height="15.783" transform="translate(99.476 118.366)" fill="#0082e6"/>
    <rect id="長方形_713" data-name="長方形 713" width="15.782" height="15.783" transform="translate(76.461 118.366)" fill="#0082e6"/>
    <path id="パス_332" data-name="パス 332" d="M152.707,55.046H139.873v12.3a8.388,8.388,0,0,1-8.431,8.325H114.684a8.388,8.388,0,0,1-8.431-8.325v-12.3H85.442V67.235a8.492,8.492,0,0,1-8.525,8.441H60.347a8.492,8.492,0,0,1-8.525-8.441V55.046H38.988a15.084,15.084,0,0,0-15.135,15V181.783a15.085,15.085,0,0,0,15.135,15H152.707a15.1,15.1,0,0,0,15.158-15V70.044A15.1,15.1,0,0,0,152.707,55.046Zm4.308,126.446a4.2,4.2,0,0,1-4.439,4.438H39.142a4.2,4.2,0,0,1-4.439-4.438V93.211H157.015v88.281Z" transform="translate(0 -37.972)" fill="#0082e6"/>
    <path id="パス_333" data-name="パス 333" d="M135.867,31.795h16.561a2.537,2.537,0,0,0,2.543-2.526V6.356A6.39,6.39,0,0,0,148.561,0h-8.827a6.391,6.391,0,0,0-6.411,6.356V29.269A2.538,2.538,0,0,0,135.867,31.795Z" transform="translate(-75.515 0)" fill="#0082e6"/>
    <path id="パス_334" data-name="パス 334" d="M311.256,31.795h16.757a2.44,2.44,0,0,0,2.445-2.427V6.259A6.293,6.293,0,0,0,324.146,0h-9.023a6.293,6.293,0,0,0-6.312,6.259V29.368A2.439,2.439,0,0,0,311.256,31.795Z" transform="translate(-196.572)" fill="#0082e6"/>
  </g>
</svg>
