<svg xmlns="http://www.w3.org/2000/svg" width="178" height="150.491" viewBox="0 0 178 150.491">
  <g id="icon-01" transform="translate(0 -39.564)" opacity="0.15">
    <path id="パス_328" data-name="パス 328" d="M0,135.618v97.046A12.139,12.139,0,0,0,12.146,244.8H27.313V123.483H12.146A12.132,12.132,0,0,0,0,135.618Z" transform="translate(0 -54.744)" fill="#0082e6"/>
    <path id="パス_329" data-name="パス 329" d="M448.635,123.483H433.467V244.8h15.168a12.137,12.137,0,0,0,12.135-12.135V135.618A12.13,12.13,0,0,0,448.635,123.483Z" transform="translate(-282.77 -54.744)" fill="#0082e6"/>
    <path id="パス_330" data-name="パス 330" d="M177.767,189.216a3.043,3.043,0,1,0,4.3,0A3.042,3.042,0,0,0,177.767,189.216Z" transform="translate(-115.383 -97.044)" fill="#0082e6"/>
    <path id="パス_331" data-name="パス 331" d="M197.254,49.472a9.923,9.923,0,0,0-9.908-9.908H138.706a9.916,9.916,0,0,0-9.908,9.908V68.739H113.469V190.055h99.114V68.739H197.254V49.472ZM173.284,114.03l-15.025,15.024a4.063,4.063,0,0,1-5.742,0l-23.282-23.282a4.07,4.07,0,0,1-1.189-2.871V87.873a4.06,4.06,0,0,1,4.06-4.058H147.13A4.062,4.062,0,0,1,150,85.005l23.28,23.282A4.065,4.065,0,0,1,173.284,114.03Zm11.833-45.291H140.936V51.7h44.181Z" transform="translate(-74.021)" fill="#0082e6"/>
  </g>
</svg>
