<svg xmlns="http://www.w3.org/2000/svg" width="166.179" height="159" viewBox="0 0 166.179 159">
  <g id="icon-12" transform="translate(0 -11.059)" opacity="0.15">
    <path id="パス_1818" data-name="パス 1818" d="M18.178,111.544a4.6,4.6,0,0,0-6.506,0L1.346,121.868a4.6,4.6,0,0,0,0,6.506l6.693,6.693,16.832-16.83Z" transform="translate(0 -66.96)" fill="#0082e6"/>
    <path id="パス_1819" data-name="パス 1819" d="M239.454,349.649l-5.738-22.572L216.884,343.91Z" transform="translate(-146.491 -213.449)" fill="#0082e6"/>
    <path id="パス_1820" data-name="パス 1820" d="M106.882,200.248,51.031,144.4,34.2,161.23l55.849,55.851ZM51.489,151.59l48.659,48.66-3.825,3.823L47.664,155.416Z" transform="translate(-23.1 -90.061)" fill="#0082e6"/>
    <rect id="長方形_885" data-name="長方形 885" width="9.528" height="9.093" transform="translate(63.505 50.472)" fill="#0082e6"/>
    <rect id="長方形_886" data-name="長方形 886" width="9.528" height="9.091" transform="translate(63.505 72.608)" fill="#0082e6"/>
    <rect id="長方形_887" data-name="長方形 887" width="56.168" height="9.093" transform="translate(83.313 50.472)" fill="#0082e6"/>
    <rect id="長方形_888" data-name="長方形 888" width="56.168" height="9.091" transform="translate(83.313 72.608)" fill="#0082e6"/>
    <rect id="長方形_889" data-name="長方形 889" width="45.812" height="9.091" transform="translate(93.669 94.744)" fill="#0082e6"/>
    <path id="パス_1821" data-name="パス 1821" d="M216.1,11.059H140.074A26.7,26.7,0,0,0,113.4,37.732V48.353l9.876,9.878v-20.5a16.8,16.8,0,0,1,16.8-16.8H216.1a16.8,16.8,0,0,1,16.8,16.8v82.454h-26a14,14,0,0,0-14,14v26h-52.83a16.8,16.8,0,0,1-16.8-16.8V131.354l-2.023-.515,2.023-2.024v-7.206l-9.876-9.875v31.653a26.7,26.7,0,0,0,26.674,26.673h56.919l2.894-2.893,39.995-39.995,2.892-2.893V37.732A26.7,26.7,0,0,0,216.1,11.059Z" transform="translate(-76.594)" fill="#0082e6"/>
  </g>
</svg>
