<svg xmlns="http://www.w3.org/2000/svg" width="107.987" height="162" viewBox="0 0 107.987 162">
  <g id="icon-07" transform="translate(-85.354 0)" opacity="0.15">
    <path id="パス_338" data-name="パス 338" d="M181.277.867a17.2,17.2,0,0,0-18.8,5.534L140.66,33.011c-.362.438-.71.891-1.055,1.343-.089.105-.166.207-.261.313q-.63-.842-1.3-1.653L116.227,6.4A17.231,17.231,0,0,0,97.4.876c-7.354,2.395-12.043,9.636-12.043,17.369V90.3A23.643,23.643,0,0,0,90.7,105.251l45.17,55.1a4.5,4.5,0,0,0,6.963,0l45.161-55.1A23.648,23.648,0,0,0,193.341,90.3V18.238C193.341,10.5,188.64,3.254,181.277.867ZM180.463,90.3a10.711,10.711,0,0,1-2.429,6.79l-37.1,45.479a.9.9,0,0,1-1.6-.569V55.333a3.1,3.1,0,0,1,.721-1.988l32.369-38.778a4.4,4.4,0,0,1,3.426-1.683,4.846,4.846,0,0,1,2.3.6,4.8,4.8,0,0,1,2.3,4.27Z" fill="#0082e6"/>
  </g>
</svg>
