<svg xmlns="http://www.w3.org/2000/svg" width="156.304" height="158" viewBox="0 0 156.304 158">
  <g id="icon-04" transform="translate(0 -83.65)" opacity="0.15">
    <circle id="楕円形_43" data-name="楕円形 43" cx="15.588" cy="15.588" r="15.588" transform="translate(22.804 83.65)" fill="#0082e6"/>
    <path id="パス_348" data-name="パス 348" d="M44.831,170.795H31.955c-13.64,0-20.791,12.542-23.748,24.26-1.663,6.585-8.184,35.7-8.184,35.7-.285,1.846,2.1,4.676,4.677,4.676h.072a3.775,3.775,0,0,0,.768-.161,3.51,3.51,0,0,0,.374-.077,3.858,3.858,0,0,0,1.271-.628c.072-.055.149-.1.217-.161a6.867,6.867,0,0,0,2.047-3.649l8.185-34.868c.575-2.233,4-1.751,4,0v86.363a4.691,4.691,0,0,0,4.677,4.677h1.575a4.689,4.689,0,0,0,4.677-4.677V237.63H44.221v44.619a4.689,4.689,0,0,0,4.675,4.677h1.576a4.689,4.689,0,0,0,4.677-4.677V195.885c0-1.751,3.429-2.233,4,0l8.183,34.868c.686,2.686,2.106,4.676,4.677,4.676h.073c2.571,0,5-3.051,4.677-4.676,0,0-6.523-29.114-8.185-35.7C65.622,183.337,58.47,170.795,44.831,170.795Z" transform="translate(0 -47.2)" fill="#0082e6"/>
    <circle id="楕円形_44" data-name="楕円形 44" cx="15.588" cy="15.588" r="15.588" transform="translate(103.516 85.575)" fill="#0082e6"/>
    <path id="パス_349" data-name="パス 349" d="M415.9,199.254c-2.955-11.715-8.938-24.26-22.578-24.26H380.447c-13.64,0-19.622,12.544-22.578,24.26-1.662,6.585-8.185,35.7-8.185,35.7a4.692,4.692,0,0,0,4.677,4.677h.073a4.692,4.692,0,0,0,4.677-4.677l8.183-34.866c.575-2.235,4-1.751,4,0v.868l-9.082,38.684-2.127,8.987h.018l-.018.073H371.3V286.45a4.689,4.689,0,0,0,4.677,4.675h1.576a4.689,4.689,0,0,0,4.675-4.675V248.7h9.32V286.45a4.689,4.689,0,0,0,4.677,4.675H397.8a4.69,4.69,0,0,0,4.677-4.675V248.7h9.058l2.077.016,0-.016h.075l-11.207-47.744v-.868c0-1.751,3.427-2.235,4,0l8.185,34.866a4.691,4.691,0,0,0,4.677,4.677h.072a4.691,4.691,0,0,0,4.677-4.677S417.564,205.839,415.9,199.254Z" transform="translate(-267.781 -49.475)" fill="#0082e6"/>
  </g>
</svg>
