<svg xmlns="http://www.w3.org/2000/svg" width="197.363" height="158" viewBox="0 0 197.363 158">
  <g id="icon-05" transform="translate(0 -51.057)" opacity="0.15">
    <path id="パス_350" data-name="パス 350" d="M100.55,51.057c-19.275,14.329-64.853,55.7-99.026,55.7-2.25,0-1.344,1.631-1.344,1.631l29.858,12.48L11.876,138.847V168.6l96.813,40.461,88.674-87.793V91.518ZM26.4,110.176c10.254-3.832,20.58-9.5,30.473-15.877,2.475-1.594,4.91-3.244,7.322-4.907.53-.367,1.057-.727,1.582-1.1q3.506-2.447,6.9-4.935c.263-.192.515-.382.777-.575q3.284-2.424,6.428-4.829c.283-.218.565-.429.845-.646q3.475-2.667,6.747-5.239l78.859,32.959c-20.79,15.83-47.5,33.721-67.99,33.721a30.244,30.244,0,0,1-4.245-.289L45.01,117.951l-8.455-3.53ZM38.5,124.4,91.759,146.66a37.887,37.887,0,0,0,6.579.556c21.432,0,47.348-16.271,68.45-31.933l-60.552,59.946L22.506,140.24ZM188.9,117.734,106.74,199.07l-86.4-36.107v-7.036l86.948,36.334L188.9,111.466Zm0-11.274-82.426,81.606-86.13-35.993v-7.5l87.005,36.359L188.9,100.2Z" transform="translate(0)" fill="#0082e6"/>
    <path id="パス_351" data-name="パス 351" d="M199.184,190.612a1.035,1.035,0,0,0,1.037-.121l7.864-3.53a14.536,14.536,0,0,0,2.545-1.47l25.315-18.322c.311-.227.312-.479,0-.634l-5.776-2.865a2.437,2.437,0,0,0-1.24-.236l-10.134.161a1.839,1.839,0,0,0-1.086.348l-6.437,4.658c-.415.3-.261.5.255.507l9.411-.015.1.05L203.283,182,193,186.909c-.312.224-.312.478,0,.631Z" transform="translate(-118.458 -69.056)" fill="#0082e6"/>
  </g>
</svg>
