<svg xmlns="http://www.w3.org/2000/svg" width="200" height="157.806" viewBox="0 0 200 157.806">
  <g id="icon-03" transform="translate(0 -54.009)" opacity="0.15">
    <path id="パス_342" data-name="パス 342" d="M169.385,417.8a6.313,6.313,0,0,0-.012,8.922l1.239,1.239a6.318,6.318,0,0,0,8.932,0l1.395-1.407L170.79,416.4Z" transform="translate(-102.09 -220.834)" fill="#0082e6"/>
    <path id="パス_343" data-name="パス 343" d="M125.248,380.316a6.319,6.319,0,0,0,0,8.934l1.227,1.227a6.307,6.307,0,0,0,8.936,0l3.221-3.223,0-.006.046-.044L128.52,377.044Z" transform="translate(-75.196 -196.849)" fill="#0082e6"/>
    <path id="パス_344" data-name="パス 344" d="M92.48,338.1l-1.407,1.393a6.314,6.314,0,0,0-.012,8.92l1.239,1.241a6.318,6.318,0,0,0,8.936,0l1.391-1.405Z" transform="translate(-54.37 -173.115)" fill="#0082e6"/>
    <path id="パス_345" data-name="パス 345" d="M235.773,54.01l-25.96,26.253L190.6,86.577l-6.122,2.017h-.012l-6.122,2.02h-.014L133.255,105.44a6,6,0,0,0-2.058,1.227,5.028,5.028,0,0,0-.806.894,5.445,5.445,0,0,0-.638,1.036,6.218,6.218,0,0,0-.4,4.231,4.092,4.092,0,0,0,.152.51l.677,1.9a6.178,6.178,0,0,0,1.431,2.264v.012a6.233,6.233,0,0,0,2.609,1.546,2.519,2.519,0,0,0,.446.114,5.763,5.763,0,0,0,1.343.154,5.593,5.593,0,0,0,.639-.038,4.248,4.248,0,0,0,.563-.076,2.432,2.432,0,0,0,.281-.064,4.867,4.867,0,0,0,.587-.166l19.835-4.307h.014a2.258,2.258,0,0,1,.409-.089.6.6,0,0,1,.154-.026l.037-.014,34.641-7.507,15.571,15.567,2.58,2.594.068.069-.114-.024,28.732,28.718a42.268,42.268,0,0,0,10.965-21.524l1.663-9.161L278.7,96.94Z" transform="translate(-78.704 -0.001)" fill="#0082e6"/>
    <path id="パス_346" data-name="パス 346" d="M155.9,159.413l-43.866-44-30.618,6.639-.551.128H80.8l-.243.05L61.4,126.4a13.412,13.412,0,0,1-2.746.523,11.633,11.633,0,0,1-1.343.076,13.873,13.873,0,0,1-13.049-9.189l-.69-1.929a13.85,13.85,0,0,1,8.4-17.664l.09-.04.1-.024,19.454-6.4,15.726-5.12-.08-.026.1-.034-19.2-6.313L43.411,54.51l-.436-.456h0l-.045-.046L0,96.94l25.336,26.343,1.673,9.161a42.238,42.238,0,0,0,11.746,22.342L43.38,159.4l10.175,10.173,5.188,5.2L68.9,184.936l5.214,5.2L84.28,200.3l9.7,9.7a6.142,6.142,0,0,0,4.358,1.816,6.428,6.428,0,0,0,1.3-.141A6.248,6.248,0,0,0,102.71,210l1.419-1.419a6.179,6.179,0,0,0,0-8.74L77.814,173.524a3.682,3.682,0,0,1,.574-5.662,3.452,3.452,0,0,1,1.968-.588,3.985,3.985,0,0,1,2.774,1.151l1.15,1.149,5.2,5.2,15.363,15.362L115.006,200.3l6.824,6.825a6.3,6.3,0,0,0,8.92,0l1.241-1.239a6.3,6.3,0,0,0,0-8.922l-16.984-16.984-5.216-5.2L99.643,164.616l-5.215-5.2-1.151-1.151a3.777,3.777,0,0,1-.179-5.2l.09-.091a3.635,3.635,0,0,1,2.606-1.085h.026a3.641,3.641,0,0,1,2.582,1.073l1.24,1.239c1.315,1.33,3.118,3.119,5.2,5.215,2.954,2.952,6.48,6.494,10.149,10.161l5.214,5.214c3.618,3.618,7.158,7.146,10.162,10.149l8.69,8.691a6.309,6.309,0,0,0,8.934,0l1.239-1.227a6.341,6.341,0,0,0,0-8.934l-8.7-8.691-33.166-33.139a1.917,1.917,0,0,1-.076-2.774l1.266-1.266a3.688,3.688,0,0,1,5.2,0l31.979,31.978L148.159,172a7.737,7.737,0,0,0,5.445,2.264,6.86,6.86,0,0,0,3.975-1.227,7.154,7.154,0,0,0,3.029-6.583,7.521,7.521,0,0,0-2.263-4.6Z" transform="translate(0 0)" fill="#0082e6"/>
  </g>
</svg>
