<svg xmlns="http://www.w3.org/2000/svg" width="216.512" height="154.403" viewBox="0 0 216.512 154.403">
  <g id="icon-10" transform="translate(0 -73.438)" opacity="0.15">
    <path id="パス_352" data-name="パス 352" d="M232.554,73.438h-97.42a4.161,4.161,0,0,0-4.161,4.161V227.771h0v.069h40.388V199.448h24.967V227.84h40.386V77.6A4.16,4.16,0,0,0,232.554,73.438Zm-16.38,18.715v12.164H200.95V92.153h15.224Zm0,25.266v12.391H200.95V117.419Zm0,25.49v12.408H200.95V142.908Zm0,25.51v12.409H200.95V168.418ZM190.8,92.153v12.164H175.578V92.153H190.8Zm-15.224,37.656V117.418H190.8v12.391Zm0,25.508V142.908H190.8v12.408Zm0,25.51V168.418H190.8v12.409ZM165.429,92.153v12.164H150.205V92.153h15.224Zm0,25.266v12.391H150.205V117.419Zm0,25.49v12.408H150.205V142.908Zm0,25.51v12.409H150.205V168.418Z" transform="translate(-75.588)" fill="#0082e6"/>
    <path id="パス_353" data-name="パス 353" d="M0,132.3V259.341H0v.069H43.084V219.434H12.728V208.9H43.084V197.762H12.728V187.207H43.084V176.07H12.728V165.534H43.084V154.4H12.728V144.066h30.1l.185,0v0h.068V128.141H4.163A4.161,4.161,0,0,0,0,132.3Z" transform="translate(0 -31.57)" fill="#0082e6"/>
    <path id="パス_354" data-name="パス 354" d="M449.042,128.141H410.121V144h0v.068h30.357V154.4H410.121v11.067h0v.068h30.357V176.07H410.121v11.069h0v.068h30.357v10.555H410.121V208.83h0v.068h30.357v10.537H410.121v39.907h0v.069H453.2V132.3A4.159,4.159,0,0,0,449.042,128.141Z" transform="translate(-236.691 -31.57)" fill="#0082e6"/>
  </g>
</svg>
