<svg xmlns="http://www.w3.org/2000/svg" xmlns:xlink="http://www.w3.org/1999/xlink" width="609.48" height="170.44" viewBox="0 0 609.48 170.44">
  <defs>
    <filter id="パス_1828" x="0" y="0" width="609.48" height="170.439" filterUnits="userSpaceOnUse">
      <feOffset dx="6" dy="6" input="SourceAlpha"/>
      <feGaussianBlur result="blur"/>
      <feFlood flood-color="#006cbf"/>
      <feComposite operator="in" in2="blur"/>
      <feComposite in="SourceGraphic"/>
    </filter>
    <filter id="パス_1827" x="0" y="35.921" width="382.685" height="134.519" filterUnits="userSpaceOnUse">
      <feOffset dx="6" dy="6" input="SourceAlpha"/>
      <feGaussianBlur result="blur-2"/>
      <feFlood flood-color="#006cbf"/>
      <feComposite operator="in" in2="blur-2"/>
      <feComposite in="SourceGraphic"/>
    </filter>
  </defs>
  <g id="text-03" transform="translate(-6126.859 -1672.221)">
    <g transform="matrix(1, 0, 0, 1, 6126.86, 1672.22)" filter="url(#パス_1828)">
      <path id="パス_1828-2" data-name="パス 1828" d="M-235.42-60.377v66.5h-63.457v-66.5h20.93l.668-3.266,15.438.594-.631,2.672Zm-14.955,53.1v-4.936h-33.658v4.936Zm0-17.85v-4.49h-33.658v4.49Zm0-17.4v-4.787h-33.658v4.787Zm57.928-9.5L-221.021-34.92l-6.643-13.768,27.535-15.437Zm38.52,2.746-6.309,13.656-30.318-16.4,7.348-12.395Zm-8.906,13.359V6.049h-28.277V-8.572h13.471v-13.8H-191L-208.812,7.088-222.469.037l14.807-22.414h-10.65V-35.922Zm56.035-8.35-8.387,48.391h-21.561l-12.172-14.287V-43.307L-135.3-59.189h38.816l15.512,15.66V-4.973L-103.236,6.717l-8.35-15.289,14.064-6.605V-38.371l-6.494-5.9Zm-15.66,0h-5.27l-5.455,5.678v22.748l2.115,2.189h2.82Zm73.18-18.035V-33.25H-60.969v3.934h11.689V6.346H-70.469V-7.867h8.646v-8.387H-73.215V-45.793h11.1v-4.045H-73.66V-62.307Zm44.531,20.3v28.871h-14.51v3.674l3.266-.148-.52-2,10.539-.594L-2.3,5.715l-11.318,1.15-.705-3.637L-45.865,6.346-46.9-8.016l15.326-.779v-4.342H-45.939V-42.008h14.361v-2.746h-16.18l5.938-18.518h14.139l-2.227,7.2h9.055L-23.748-61.9h12.914l7.979,17.145h-16.4v2.746ZM-16.141-25.9v-3.414h-3.117V-25.9Zm-15.437-3.414h-3.043V-25.9h3.043ZM38.893-61.082v21.041l12.84,1.373v-18.7h15.66V-37l3.785.482v16.031l-3.785-.482V-8.572L54.293,5.715H40.006V-9.871h6.16l5.566-6.457v-6.531l-12.84-1.521v13.916L29.764,1.559H15.773L2.859-10.836V-25.123l8.275-14.732H24.049v-6.309h-17V-61.082ZM24.049-24.6H20.189l-4.268,6.68,5.01,4.268,3.117-3.488Zm91.875-10.054v7.479H97.663l-2.246,2.583h8.221l3.369,3.077,8.378-3.526,4,7.771-9.389,4.313v5.705h-9.1V-9.5L94.024-6.2v.741h23.337V3.459H92.183L85.624-.27V-10.849l12.735-5.885H88.521l-5.907,6.671-6.469-6.064,9.838-11.051H79.4v-7.479H92.654l3.257-3.684h11.545l-3.212,3.684Zm20.754-1.887-1.348,3.773h4.694v-5.66h9.209v5.66H164.6V-24.5H149.233v4.964h13.836v8.378H149.233v5.75h15.813v8.6H123.2v-8.6h16.823v-5.75H126.278v-8.378h13.746V-24.5h-7.592l-1.5,4.335-8.333-2.493,5.57-15.768Zm52.985,6.02,7.232,4.313V-2.2l-4.38,5.66H182.071V-6.334h5.66V-20.17h-5.188L178.635,2.448h-9.164l3.863-22.618h-3.863V-30.524h5.66l1.1-6.626h9.3l-1.146,6.626Zm17.07-2.246L211.607-8h-8.782l-5.3-24.774Zm46.741-3.549v9.142l-16.509,5.121h19.721V-13.7h-3.908L236.4-6.559h17.07V3.459H233.642L224.388-.854V-8.917l11.1-4.784H215.516v-8.311h2.2L238.9-28.5H218.683v-7.816Zm42.451.225V-27.4H267.535v-8.692Zm-1.8,11.365,6.671,4.56V-6.559L289.524,3.459H267.535V-6.334h18.126l5.121-4.6v-4.739h-28.66v-9.052Z" transform="translate(305.27 110.68) rotate(-9)" fill="#fff"/>
    </g>
    <g transform="matrix(1, 0, 0, 1, 6126.86, 1672.22)" filter="url(#パス_1827)">
      <path id="パス_1827-2" data-name="パス 1827" d="M-120.42-60.377v66.5h-63.457v-66.5h20.93l.668-3.266,15.438.594-.631,2.672Zm-14.955,53.1v-4.936h-33.658v4.936Zm0-17.85v-4.49h-33.658v4.49Zm0-17.4v-4.787h-33.658v4.787Zm57.928-9.5L-106.021-34.92l-6.643-13.768,27.535-15.437Zm38.52,2.746-6.309,13.656-30.318-16.4,7.348-12.395Zm-8.906,13.359V6.049H-76.111V-8.572h13.471v-13.8H-76L-93.812,7.088-107.469.037l14.807-22.414h-10.65V-35.922ZM8.2-44.271-.186,4.119H-21.746L-33.918-10.168V-43.307L-20.3-59.189H18.518l15.512,15.66V-4.973L11.764,6.717,3.414-8.572l14.064-6.605V-38.371l-6.494-5.9Zm-15.66,0h-5.27l-5.455,5.678v22.748l2.115,2.189h2.82Zm73.18-18.035V-33.25H54.031v3.934H65.721V6.346H44.531V-7.867h8.646v-8.387H41.785V-45.793h11.1v-4.045H41.34V-62.307Zm44.531,20.3v28.871H95.742v3.674l3.266-.148-.52-2,10.539-.594L112.7,5.715l-11.318,1.15-.705-3.637L69.135,6.346,68.1-8.016l15.326-.779v-4.342H69.061V-42.008H83.422v-2.746H67.242L73.18-63.271H87.318l-2.227,7.2h9.055L91.252-61.9h12.914l7.979,17.145h-16.4v2.746ZM98.859-25.9v-3.414H95.742V-25.9ZM83.422-29.316H80.379V-25.9h3.043Zm70.471-31.766v21.041l12.84,1.373v-18.7h15.66V-37l3.785.482v16.031l-3.785-.482V-8.572l-13.1,14.287H155.006V-9.871h6.16l5.566-6.457v-6.531l-12.84-1.521v13.916L144.764,1.559h-13.99L117.859-10.836V-25.123l8.275-14.732h12.914v-6.309h-17V-61.082ZM139.049-24.6h-3.859l-4.268,6.68,5.01,4.268,3.117-3.488Z" transform="translate(191.69 128.67) rotate(-9)" fill="#fffa60"/>
    </g>
  </g>
</svg>
