<svg xmlns="http://www.w3.org/2000/svg" xmlns:xlink="http://www.w3.org/1999/xlink" width="566.056" height="162.168" viewBox="0 0 566.056 162.168">
  <defs>
    <filter id="パス_1824" x="0" y="0" width="566.056" height="162.168" filterUnits="userSpaceOnUse">
      <feOffset dx="6" dy="6" input="SourceAlpha"/>
      <feGaussianBlur result="blur"/>
      <feFlood flood-color="#006cbf"/>
      <feComposite operator="in" in2="blur"/>
      <feComposite in="SourceGraphic"/>
    </filter>
    <filter id="パス_1823" x="0" y="27.938" width="387.187" height="133.838" filterUnits="userSpaceOnUse">
      <feOffset dx="6" dy="6" input="SourceAlpha"/>
      <feGaussianBlur result="blur-2"/>
      <feFlood flood-color="#006cbf"/>
      <feComposite operator="in" in2="blur-2"/>
      <feComposite in="SourceGraphic"/>
    </filter>
  </defs>
  <g id="text-02" transform="translate(-6193.803 -2659.358)">
    <g transform="matrix(1, 0, 0, 1, 6193.8, 2659.36)" filter="url(#パス_1824)">
      <path id="パス_1824-2" data-name="パス 1824" d="M-246.82-55.367v14.51h-9.055l-6.754,34.1h-15.215l6.68-34.1h-6.977v-14.51h9.871l1.15-6.012h15.363l-1.225,6.012Zm36.85,2.709v15.141h-9.055v12.023l9.055,5.307V-3.229l-9.055-5.418v6.68l-6.754,7.682h-20.67l-9.277-8.053v-17.85l7.979-8.275h13.063v-9.055H-244V-52.658Zm-24.715,37.777h-6.049v5.863h6.049Zm51.842-43.826v26.348h12.023v15.066H-190.9l-8.275-8.98V-58.707Zm45.459.52V-12.8L-155.568,5.715h-27.275V-10.242h18.48l9.945-10.316V-58.187ZM-92.779-52.4v15.475h-8.832l-8.721,42.639h-15.586l8.98-42.639h-8.275V-52.4h11.467l1.6-7.607H-96.9L-98.42-52.4Zm32.619,1.967v15.289H-89.439V-50.432ZM-75.3-19.668-83.8-9.314h25.531V5.715H-87.844L-99.014-8.943l12.988-17.182Zm42.787-36.627v43.344l8.127-8.758,10.725,10.8L-29.768,6.717-48.4-7.793v-48.5ZM17.027-41.637V-1.41H1V-33.25l-9.018-5.418L-.043-52.027ZM68.275-63.271v24.232L96.7-5.9,84.752,6.2,59.666-25.123,35.656,6.791,23.336-5.158,51.91-39.707V-63.271ZM111.05-35.443V3.414h-9.389V-35.443Zm29.312,1.056v9.523h-24.3v-9.523ZM129.311-12.78l-4.874,5.3H141.6V2.493H120.663l-5.705-5.5V-9.681l7.861-8.513Zm35.982-20.731v8.782h-5.48L155.725-4.088h-9.209l4.043-20.642h-4.223v-8.782h5.975l.7-3.639h9.3l-.741,3.639Zm22.3,1.64v9.164h-5.48v7.277l5.48,3.212V-1.954l-5.48-3.279V-1.19l-4.088,4.649H165.518L159.9-1.415v-10.8l4.829-5.009h7.906v-5.48H167v-9.164ZM172.638-9.007h-3.661v3.549h3.661ZM226.971-35.78l3.212,8.153-12.219,5.278h7.21l7.637,6.918V-4.986l-8.311,8.4H199.1V-6.424h21.158l1.887-1.662V-11.77l-1.887-1.685H204.712l-9.658,5.009L191.595-17.7l19.968-9.231h-15v-8.85Zm45.955-.314V-27.4H244.535v-8.692Zm-1.8,11.365,6.671,4.56V-6.559L266.524,3.459H244.535V-6.334h18.126l5.121-4.6v-4.739h-28.66v-9.052Z" transform="translate(284.61 105.95) rotate(-9)" fill="#fff"/>
    </g>
    <g transform="matrix(1, 0, 0, 1, 6193.8, 2659.36)" filter="url(#パス_1823)">
      <path id="パス_1823-2" data-name="パス 1823" d="M-154.82-55.367v14.51h-9.055l-6.754,34.1h-15.215l6.68-34.1h-6.977v-14.51h9.871l1.15-6.012h15.363l-1.225,6.012Zm36.85,2.709v15.141h-9.055v12.023l9.055,5.307V-3.229l-9.055-5.418v6.68l-6.754,7.682h-20.67l-9.277-8.053v-17.85l7.979-8.275h13.063v-9.055H-152V-52.658Zm-24.715,37.777h-6.049v5.863h6.049Zm51.842-43.826v26.348H-78.82v15.066H-98.9l-8.275-8.98V-58.707Zm45.459.52V-12.8L-63.568,5.715H-90.844V-10.242h18.48l9.945-10.316V-58.187ZM-.779-52.4v15.475H-9.611L-18.332,5.715H-33.918l8.98-42.639h-8.275V-52.4h11.467l1.6-7.607H-4.9L-6.42-52.4ZM31.84-50.432v15.289H2.561V-50.432ZM16.7-19.668,8.2-9.314H33.732V5.715H4.156L-7.014-8.943,5.975-26.125ZM59.486-56.295v43.344l8.127-8.758,10.725,10.8L62.232,6.717,43.6-7.793v-48.5Zm49.541,14.658V-1.41H93V-33.25l-9.018-5.418,7.979-13.359Zm51.248-21.635v24.232L188.7-5.9,176.752,6.2l-25.086-31.32L127.656,6.791,115.336-5.158,143.91-39.707V-63.271Z" transform="translate(193.75 119.95) rotate(-9)" fill="#fffa60"/>
    </g>
  </g>
</svg>
