<svg xmlns="http://www.w3.org/2000/svg" xmlns:xlink="http://www.w3.org/1999/xlink" width="640.604" height="172.153" viewBox="0 0 640.604 172.153">
  <defs>
    <filter id="をやろう" x="0" y="0" width="640.604" height="172.153" filterUnits="userSpaceOnUse">
      <feOffset dx="6" dy="6" input="SourceAlpha"/>
      <feGaussianBlur result="blur"/>
      <feFlood flood-color="#006cbf"/>
      <feComposite operator="in" in2="blur"/>
      <feComposite in="SourceGraphic"/>
    </filter>
    <filter id="パス_1822" x="0" y="29.154" width="456.531" height="142.999" filterUnits="userSpaceOnUse">
      <feOffset dx="6" dy="6" input="SourceAlpha"/>
      <feGaussianBlur result="blur-2"/>
      <feFlood flood-color="#006cbf"/>
      <feComposite operator="in" in2="blur-2"/>
      <feComposite in="SourceGraphic"/>
    </filter>
  </defs>
  <g id="text-01" transform="translate(-6044.307 -3003.027)">
    <g transform="matrix(1, 0, 0, 1, 6044.31, 3003.03)" filter="url(#をやろう)">
      <path id="をやろう-2" data-name="をやろう" d="M-259.586-52.4l11.318,10.168v20.3l-8.98,12.988h-22.043V-23.824h12.023l2.969-4.342v-8.758H-289.83l5.01,42.639h-16.365L-305.9-36.924h-10.02V-52.4h8.275l-.965-9.055h15.883l1.039,9.055h11.43l4.156-9.055h16.365L-264-52.4Zm38.742-6.309v26.348h12.023v15.066H-228.9l-8.275-8.98V-58.707Zm45.459.52V-12.8L-193.568,5.715h-27.275V-10.242h18.48l9.945-10.316V-58.187Zm44.605,5.789v15.475h-8.832l-8.721,42.639h-15.586l8.98-42.639h-8.275V-52.4h11.467l1.6-7.607H-134.9L-136.42-52.4Zm32.619,1.967v15.289h-29.279V-50.432ZM-113.3-19.668l-8.5,10.354h25.531V5.715h-29.576l-11.17-14.658,12.988-17.182Zm42.787-36.627v43.344l8.127-8.758,10.725,10.8L-67.768,6.717-86.4-7.793v-48.5Zm49.541,14.658V-1.41H-37V-33.25l-9.018-5.418,7.979-13.359Zm70.916-16.18V-42.23H-6.426V-57.816ZM18.252-20.484,6.488-11.059H53.432v16.7H3L-8.727-4.6V-17.145L8.307-31.357ZM84.826-35.922,72.506-52.658l14.918-8.053,12.691,18.035L122.381-52.4l7.051,14.027-45.9,20.3v5.492l3.34,2.895h41.117v15.4H80.967L67.051-5.307V-28.092Zm92.1,1.265v7.479H158.663l-2.246,2.583h8.221l3.369,3.077,8.378-3.526,4,7.771-9.389,4.313v5.705h-9.1V-9.5l-6.873,3.3v.741h23.337V3.459H153.183L146.624-.27V-10.849l12.735-5.885h-9.838l-5.907,6.671-6.469-6.064,9.838-11.051H140.4v-7.479h13.252l3.257-3.684h11.545l-3.212,3.684Zm41.643,2.942,6.851,6.154v12.286l-5.436,7.861H206.64V-14.42h7.277l1.8-2.628v-5.3H200.261l3.032,25.808h-9.905l-2.853-25.808h-6.064v-9.366h5.009L188.9-37.2h9.613l.629,5.48h6.918l2.516-5.48h9.905l-2.583,5.48Zm46.4-4.065,3.212,8.153-12.219,5.278h7.21l7.637,6.918V-4.986l-8.311,8.4H237.1V-6.424h21.158l1.887-1.662V-11.77l-1.887-1.685H242.712l-9.658,5.009L229.595-17.7l19.968-9.231h-15v-8.85Zm45.955-.314V-27.4H282.535v-8.692Zm-1.8,11.365,6.671,4.56V-6.559L304.524,3.459H282.535V-6.334h18.126l5.121-4.6v-4.739h-28.66v-9.052Z" transform="translate(321.64 110.1) rotate(-9)" fill="#fff"/>
    </g>
    <g transform="matrix(1, 0, 0, 1, 6044.31, 3003.03)" filter="url(#パス_1822)">
      <path id="パス_1822-2" data-name="パス 1822" d="M-167.586-52.4l11.318,10.168v20.3l-8.98,12.988h-22.043V-23.824h12.023l2.969-4.342v-8.758H-197.83l5.01,42.639h-16.365L-213.9-36.924h-10.02V-52.4h8.275l-.965-9.055h15.883l1.039,9.055h11.43l4.156-9.055h16.365L-172-52.4Zm38.742-6.309v26.348h12.023v15.066H-136.9l-8.275-8.98V-58.707Zm45.459.52V-12.8L-101.568,5.715h-27.275V-10.242h18.48l9.945-10.316V-58.187ZM-38.779-52.4v15.475h-8.832L-56.332,5.715H-71.918l8.98-42.639h-8.275V-52.4h11.467l1.6-7.607H-42.9L-44.42-52.4ZM-6.16-50.432v15.289H-35.439V-50.432ZM-21.3-19.668-29.8-9.314H-4.268V5.715H-33.844L-45.014-8.943l12.988-17.182ZM21.486-56.295v43.344l8.127-8.758,10.725,10.8L24.232,6.717,5.6-7.793v-48.5ZM71.027-41.637V-1.41H55V-33.25l-9.018-5.418,7.979-13.359Zm70.916-16.18V-42.23H85.574V-57.816ZM110.252-20.484,98.488-11.059h46.943v16.7H95L83.273-4.6V-17.145l17.033-14.213Zm66.574-15.437-12.32-16.736,14.918-8.053,12.691,18.035L214.381-52.4l7.051,14.027-45.9,20.3v5.492l3.34,2.895h41.117v15.4H172.967L159.051-5.307V-28.092Z" transform="translate(230.77 124.49) rotate(-9)" fill="#fffa60"/>
    </g>
  </g>
</svg>
