<svg xmlns="http://www.w3.org/2000/svg" xmlns:xlink="http://www.w3.org/1999/xlink" width="437" height="467" viewBox="0 0 437 467">
  <defs>
    <clipPath id="clip-path">
      <rect id="長方形_902" data-name="長方形 902" width="437" height="467" transform="translate(5909 125)" fill="#fff" stroke="#707070" stroke-width="1"/>
    </clipPath>
  </defs>
  <g id="マスクグループ_38" data-name="マスクグループ 38" transform="translate(-5909 -125)" clip-path="url(#clip-path)">
    <g id="飾り" transform="translate(5461 35.108)">
      <path id="C" d="M-5382.5-3498a16.391,16.391,0,0,1-11.667-4.833A16.392,16.392,0,0,1-5399-3514.5a16.391,16.391,0,0,1,4.833-11.667A16.392,16.392,0,0,1-5382.5-3531a16.411,16.411,0,0,1,11.5,4.669,16.408,16.408,0,0,1,4.991,11.33h-14.26a2.007,2.007,0,0,0-1.732-1,2,2,0,0,0-2,2,2,2,0,0,0,2,2,2.006,2.006,0,0,0,1.732-1h14.2a16.447,16.447,0,0,1-5.272,10.654A16.452,16.452,0,0,1-5382.5-3498Zm16.5-15h-.067c.038-.422.061-.855.066-1.287V-3513Z" transform="translate(5956 3705)" fill="#fffa60"/>
      <path id="N" d="M-5381.853-3502.994a2.985,2.985,0,0,1-1.729-.548l-.457.219a.75.75,0,0,1-1.007-.377l-4.1-9.044v6.75a3,3,0,0,1-3,3H-5396a3,3,0,0,1-3-3v-21.014a3,3,0,0,1,3-3h3.853a2.989,2.989,0,0,1,1.553.433l.761-.365a.749.749,0,0,1,1.007.377l3.974,8.763v-6.208a3,3,0,0,1,3-3H-5378a3,3,0,0,1,3,3v21.014a3,3,0,0,1-3,3Z" transform="matrix(0.839, -0.545, 0.545, 0.839, 7147.565, 337.217)" fill="#8dfff3"/>
      <g id="O" transform="translate(308 -147)">
        <circle id="楕円形_32" data-name="楕円形 32" cx="12" cy="12" r="12" transform="translate(445 370)" fill="#fff"/>
      </g>
      <path id="N-2" data-name="N" d="M-5378.906-3497.994a2.987,2.987,0,0,1-1.709-.534l-.306.144a.911.911,0,0,1-1.217-.447l-4.957-10.717v8.555a3,3,0,0,1-3,3H-5396a3,3,0,0,1-3-3v-26.014a3,3,0,0,1,3-3h5.905a2.984,2.984,0,0,1,1.5.4l.675-.318a.913.913,0,0,1,1.217.446l4.8,10.385v-7.912a3,3,0,0,1,3-3h5.9a3,3,0,0,1,3,3v26.014a3,3,0,0,1-3,3Z" transform="matrix(0.438, 0.899, -0.899, 0.438, 509.908, 6697.045)" fill="#adff85"/>
      <path id="C-2" data-name="C" d="M-5382.5-3498a16.391,16.391,0,0,1-11.667-4.833A16.392,16.392,0,0,1-5399-3514.5a16.391,16.391,0,0,1,4.833-11.667A16.392,16.392,0,0,1-5382.5-3531a16.411,16.411,0,0,1,11.5,4.669,16.408,16.408,0,0,1,4.991,11.33h-14.26a2.007,2.007,0,0,0-1.732-1,2,2,0,0,0-2,2,2,2,0,0,0,2,2,2.006,2.006,0,0,0,1.732-1h14.2a16.447,16.447,0,0,1-5.272,10.654A16.452,16.452,0,0,1-5382.5-3498Zm16.5-15h-.067c.038-.422.061-.855.066-1.287V-3513Z" transform="matrix(0.407, -0.914, 0.914, 0.407, 6774.416, -3309.182)" fill="#ff7bdc"/>
      <g id="O-2" data-name="O" transform="translate(769 -221)">
        <circle id="楕円形_32-2" data-name="楕円形 32" cx="12" cy="12" r="12" transform="translate(445 370)" fill="#8dfff3"/>
      </g>
      <g id="O-3" data-name="O" transform="translate(769 -48)">
        <circle id="楕円形_32-3" data-name="楕円形 32" cx="8.5" cy="8.5" r="8.5" transform="translate(445 370)" fill="#ff7bdc"/>
      </g>
      <path id="C-3" data-name="C" d="M-5388.5-3510a10.429,10.429,0,0,1-7.425-3.075A10.431,10.431,0,0,1-5399-3520.5a10.43,10.43,0,0,1,3.076-7.424A10.431,10.431,0,0,1-5388.5-3531a10.445,10.445,0,0,1,7.319,2.972,10.436,10.436,0,0,1,3.176,7.21h-9.074a1.278,1.278,0,0,0-1.1-.636,1.275,1.275,0,0,0-1.273,1.273,1.275,1.275,0,0,0,1.273,1.272,1.277,1.277,0,0,0,1.1-.636h9.036a10.467,10.467,0,0,1-3.355,6.78A10.469,10.469,0,0,1-5388.5-3510Zm10.5-9.546h-.043c.024-.269.039-.544.042-.819v.818Z" transform="matrix(-0.588, 0.809, -0.809, -0.588, -5500.925, 2650.59)" fill="#fff"/>
      <path id="C-4" data-name="C" d="M-5382.5-3498a16.391,16.391,0,0,1-11.667-4.833A16.392,16.392,0,0,1-5399-3514.5a16.391,16.391,0,0,1,4.833-11.667A16.392,16.392,0,0,1-5382.5-3531a16.411,16.411,0,0,1,11.5,4.669,16.408,16.408,0,0,1,4.991,11.33h-14.26a2.007,2.007,0,0,0-1.732-1,2,2,0,0,0-2,2,2,2,0,0,0,2,2,2.006,2.006,0,0,0,1.732-1h14.2a16.447,16.447,0,0,1-5.272,10.654A16.452,16.452,0,0,1-5382.5-3498Zm16.5-15h-.067c.038-.422.061-.855.066-1.287V-3513Z" transform="matrix(0.407, -0.914, 0.914, 0.407, 6052.416, -3067.182)" fill="#adff85"/>
      <path id="N-3" data-name="N" d="M-5379.094-3497.725a2.986,2.986,0,0,1-1.719-.541l-.307.147a.894.894,0,0,1-1.2-.45l-4.9-10.81v8.654a3,3,0,0,1-3,3H-5396a3,3,0,0,1-3-3v-26.284a3,3,0,0,1,3-3h5.774a2.986,2.986,0,0,1,1.505.4l.675-.323a.9.9,0,0,1,1.2.451l4.749,10.471v-8a3,3,0,0,1,3-3h5.773a3,3,0,0,1,3,3v26.284a3,3,0,0,1-3,3Z" transform="matrix(0.629, 0.777, -0.777, 0.629, 1389.73, 6553.213)" fill="#adff85"/>
      <path id="C-5" data-name="C" d="M-5382.5-3498a16.391,16.391,0,0,1-11.667-4.833A16.392,16.392,0,0,1-5399-3514.5a16.391,16.391,0,0,1,4.833-11.667A16.392,16.392,0,0,1-5382.5-3531a16.411,16.411,0,0,1,11.5,4.669,16.408,16.408,0,0,1,4.991,11.33h-14.26a2.007,2.007,0,0,0-1.732-1,2,2,0,0,0-2,2,2,2,0,0,0,2,2,2.006,2.006,0,0,0,1.732-1h14.2a16.447,16.447,0,0,1-5.272,10.654A16.452,16.452,0,0,1-5382.5-3498Zm16.5-15h-.067c.038-.422.061-.855.066-1.287V-3513Z" transform="matrix(-0.407, 0.914, -0.914, -0.407, -3937.415, 3855.301)" fill="#8dfff3"/>
      <g id="O-4" data-name="O" transform="translate(957 -91)">
        <circle id="楕円形_32-4" data-name="楕円形 32" cx="4" cy="4" r="4" transform="translate(445 370)" fill="#fff"/>
      </g>
      <g id="O-5" data-name="O" transform="translate(186 -77)">
        <circle id="楕円形_32-5" data-name="楕円形 32" cx="4" cy="4" r="4" transform="translate(445 370)"/>
        <circle id="楕円形_41" data-name="楕円形 41" cx="4" cy="4" r="4" transform="translate(445 370)" fill="#fff"/>
      </g>
      <g id="O-6" data-name="O" transform="translate(913 47)">
        <circle id="楕円形_32-6" data-name="楕円形 32" cx="4" cy="4" r="4" transform="translate(445 370)" fill="#fff"/>
      </g>
      <path id="N-4" data-name="N" d="M-5375.458-3490.781a2.988,2.988,0,0,1-1.706-.531l-.111.053a1.089,1.089,0,0,1-1.463-.547l-5.957-13.135v11.16a3,3,0,0,1-3,3H-5396a3,3,0,0,1-3-3v-33.227a3,3,0,0,1,3-3h8.306a2.983,2.983,0,0,1,1.441.369l.563-.27a1.088,1.088,0,0,1,1.462.547l5.771,12.725v-10.372a3,3,0,0,1,3-3h8.306a3,3,0,0,1,3,3v33.227a3,3,0,0,1-3,3Z" transform="matrix(0.788, 0.616, -0.616, 0.788, 2619.831, 6572.434)" fill="#ff7bdc"/>
      <path id="N-5" data-name="N" d="M-5373.284-3487.465a2.985,2.985,0,0,1-1.689-.521h0a1.214,1.214,0,0,1-1.618-.593l-6.585-14.241v12.353a3,3,0,0,1-3,3H-5396a3,3,0,0,1-3-3v-36.541a3,3,0,0,1,3-3h9.82a2.992,2.992,0,0,1,1.4.343l.5-.236a1.213,1.213,0,0,1,1.618.594l6.382,13.8v-11.5a3,3,0,0,1,3-3h9.819a3,3,0,0,1,3,3v36.541a3,3,0,0,1-3,3Z" transform="matrix(0.788, -0.616, 0.616, 0.788, 7707.347, -35.218)" fill="#fffa60"/>
      <path id="多角形_2" data-name="多角形 2" d="M11.79,2.818a2,2,0,0,1,3.42,0l2.585,4.261a2,2,0,0,0,1.235.905l4.839,1.182A2,2,0,0,1,24.925,12.4l-3.253,3.865a2,2,0,0,0-.464,1.441l.386,5.039a2,2,0,0,1-2.766,2l-4.557-1.905a2,2,0,0,0-1.543,0L8.172,24.739a2,2,0,0,1-2.766-2L5.792,17.7a2,2,0,0,0-.464-1.441L2.075,12.4A2,2,0,0,1,3.131,9.166L7.97,7.984a2,2,0,0,0,1.235-.905Z" transform="translate(455.783 240.714) rotate(-41)" fill="#8dfff3"/>
      <path id="多角形_3" data-name="多角形 3" d="M11.79,2.818a2,2,0,0,1,3.42,0l2.585,4.261a2,2,0,0,0,1.235.905l4.839,1.182A2,2,0,0,1,24.925,12.4l-3.253,3.865a2,2,0,0,0-.464,1.441l.386,5.039a2,2,0,0,1-2.766,2l-4.557-1.905a2,2,0,0,0-1.543,0L8.172,24.739a2,2,0,0,1-2.766-2L5.792,17.7a2,2,0,0,0-.464-1.441L2.075,12.4A2,2,0,0,1,3.131,9.166L7.97,7.984a2,2,0,0,0,1.235-.905Z" transform="translate(1425.066 536.873) rotate(-41)" fill="#adff85"/>
      <path id="多角形_4" data-name="多角形 4" d="M7.358,2.818a2,2,0,0,1,3.42,0l1.034,1.7a2,2,0,0,0,1.235.905L15,5.906a2,2,0,0,1,1.056,3.231L14.73,10.718a2,2,0,0,0-.464,1.441l.157,2.047a2,2,0,0,1-2.766,2l-1.818-.76a2,2,0,0,0-1.543,0l-1.818.76a2,2,0,0,1-2.766-2l.157-2.047a2,2,0,0,0-.464-1.441L2.075,9.137A2,2,0,0,1,3.131,5.906l1.958-.478a2,2,0,0,0,1.235-.905Z" transform="translate(1225.973 228.23) rotate(-41)" fill="#fffa60"/>
      <path id="多角形_5" data-name="多角形 5" d="M7.358,2.818a2,2,0,0,1,3.42,0l1.034,1.7a2,2,0,0,0,1.235.905L15,5.906a2,2,0,0,1,1.056,3.231L14.73,10.718a2,2,0,0,0-.464,1.441l.157,2.047a2,2,0,0,1-2.766,2l-1.818-.76a2,2,0,0,0-1.543,0l-1.818.76a2,2,0,0,1-2.766-2l.157-2.047a2,2,0,0,0-.464-1.441L2.075,9.137A2,2,0,0,1,3.131,5.906l1.958-.478a2,2,0,0,0,1.235-.905Z" transform="translate(788.973 482.684) rotate(-41)" fill="#fffa60"/>
      <g id="O-7" data-name="O" transform="translate(3 72)">
        <circle id="楕円形_32-7" data-name="楕円形 32" cx="4" cy="4" r="4" transform="translate(445 370)"/>
        <circle id="楕円形_41-2" data-name="楕円形 41" cx="4" cy="4" r="4" transform="translate(445 370)" fill="#fff"/>
      </g>
    </g>
  </g>
</svg>
